<svg xmlns="http://www.w3.org/2000/svg" width="128" height="128" fill="none" viewBox="0 0 128 128">
    <path fill="#0088E6" fill-rule="evenodd" stroke="#0088E6" stroke-linejoin="bevel" stroke-miterlimit="22.9" stroke-width=".3" d="M31.5 49s4.2-1.7 6-2.2c1-.4.5-1.3.4-1.5l-6.4-17c-.3 0-7.3 3.5-12.9 6.6-3.3 1.8-4.5 3.7-4.6 5.6 0 2.2.8 4.4 2.3 7 13.2 22.3 27.6 44 40.8 66.4 1.9 3.1 3.4 4.1 7.2 4.1 4.5 0 5.4-1.8 7-4.3C85 91.5 98 69.3 112.4 47.4c1.7-2.6 2.6-4.8 2.5-6.8-.2-2.2-1.6-4-4.8-5.8-3.6-1.8-9.7-4.9-13.6-6.5l-6.2 17c-.2.6 0 1.1.5 1.5l6 2.2L70 93.2c-.3.5-1.6.6-1.8 0a12 12 0 0 1 0-6.2c3.4-10.9 9-27.5 12.6-38 2.6-7.2 4.9-15 7.6-22.1.9-2.3-1.2-3.2-3.9-4.6-3.3-1.7-19-10.3-20.2-10.3-1.3 0-17.9 8.7-20.9 10.2-3 1.6-4.5 2-3.6 4.6 2.4 6.7 5 13.5 6.9 20.4C49 54.5 55.9 74.2 60 87a12 12 0 0 1 0 6.2c-.2.6-1.6.5-1.9 0L31.5 49Z" clip-rule="evenodd"/>
</svg>
